<?xml version="1.0" encoding="UTF-8"?>
<svg width="1745px" height="387px" viewBox="0 0 1745 387" version="1.1" xmlns="http://www.w3.org/2000/svg" xmlns:xlink="http://www.w3.org/1999/xlink">
    <title>Black Bear Logo</title>
    <g id="2020-Redesign" stroke="none" stroke-width="1" fill="none" fill-rule="evenodd">
        <g id="Artboard-Copy-16" transform="translate(-245.000000, -175.000000)" fill="#000000" fill-rule="nonzero">
            <g id="Black-Bear-Logo" transform="translate(250.000000, 181.000000)">
                <g id="Group-6" transform="translate(0.000000, 0.000000)">
                    <g id="Group" stroke="#000000">
                        <path d="M143.301487,375 C71.7437478,375 13.5312767,316.562556 13.5312767,244.733463 C13.5312767,173.761941 69.6983992,0 143.301487,0 C216.908783,0 273.080114,173.761941 273.080114,244.733463 C273.080114,316.562556 214.863434,375 143.301487,375 Z M142.860076,7.94117647 C76.6096037,7.94117647 21.4766493,179.56178 21.4766493,244.313587 C21.4766493,311.508061 75.9318603,366.176471 142.860076,366.176471 C209.792502,366.176471 264.251922,311.508061 264.251922,244.313587 C264.251922,179.566006 209.114758,7.94117647 142.860076,7.94117647 Z" id="Shape" stroke-width="12"></path>
                        <g transform="translate(0.607513, 40.862495)" id="Path" stroke-width="11">
                            <path d="M4.64502581,1.45870694 C2.41963791,2.76409629 0.809253368,5.08597734 0.240464127,7.8180217 C-0.321215249,10.5536327 0.226244396,13.3177768 1.75842041,15.4113931 C3.48611773,17.7796404 6.40471753,19.1991621 9.56149781,19.1991621 C11.9788521,19.1991621 14.2255696,18.3610023 15.8928331,16.8344814 C17.8018319,15.0939623 18.8896414,12.4903169 18.8755593,9.69407305 C18.8612019,6.90139585 17.748508,4.30845035 15.8146245,2.58576441 C12.8675853,-0.0428474648 8.06131619,-0.527910172 4.64502581,1.45870694 Z"></path>
                            <path d="M279.864966,1.45870694 C276.455785,-0.53147681 271.642406,-0.0428474648 268.695367,2.58219777 C266.768593,4.30488371 265.655899,6.89782921 265.638125,9.68693978 C265.62035,12.4831836 266.708159,15.086829 268.624268,16.8309148 C270.291532,18.3574357 272.538249,19.1955955 274.959158,19.1955955 C278.108829,19.1955955 281.027429,17.7796404 282.758681,15.4078264 C284.287302,13.3213434 284.834762,10.5500661 284.269527,7.81445506 C283.704293,5.07884406 282.097463,2.76409629 279.864966,1.45870694 Z"></path>
                        </g>
                        <path d="M189.778733,228.743544 C187.780861,228.743544 186.163367,230.366364 186.163367,232.367248 C186.163367,243.345358 177.26537,252.276219 166.323287,252.276219 C155.381204,252.276219 146.472542,243.345358 146.472542,232.367248 L146.472542,190.134693 C179.003732,187.759312 204.801879,154.054587 204.801879,139.149609 C204.801879,123.695368 177.073404,111.176471 142.857176,111.176471 C108.655168,111.176471 80.9195824,123.695368 80.9195824,139.149609 C80.9195824,154.054587 106.724839,187.759312 139.245364,190.134693 L139.245364,232.367248 C139.245364,243.345358 130.347367,252.276219 119.40173,252.276219 C108.463201,252.276219 99.5616498,243.345358 99.5616498,232.367248 C99.5616498,230.366364 97.9477103,228.743544 95.9498381,228.743544 C93.9519659,228.743544 92.3344715,230.366364 92.3344715,232.367248 C92.3344715,247.343559 104.478122,259.523626 119.398175,259.523626 C129.42664,259.523626 138.178884,254.013171 142.857176,245.863404 C147.531912,254.013171 156.287712,259.523626 166.319732,259.523626 C181.24334,259.523626 193.38699,247.343559 193.38699,232.367248 C193.3941,230.366364 191.776606,228.743544 189.778733,228.743544 Z" id="Path" stroke-width="10"></path>
                    </g>
                    <path d="M489,271 C499.833333,271 509.708333,268.958333 518.625,264.875 C527.541667,260.791667 534.625,254.958333 539.875,247.375 C545.125,239.791667 547.75,231.083333 547.75,221.25 C547.75,211.083333 545,202.375 539.5,195.125 C534,187.875 526.583333,182.583333 517.25,179.25 L517.25,179.25 L517.25,177.25 C524.416667,173.75 530.208333,168.708333 534.625,162.125 C539.041667,155.541667 541.25,147.75 541.25,138.75 C541.25,130.25 538.833333,122.416667 534,115.25 C529.166667,108.083333 522.541667,102.416667 514.125,98.25 C505.708333,94.0833333 496.5,92 486.5,92 L486.5,92 L416.5,92 L416.5,271 L489,271 Z M484,165 L450.25,165 L450.25,122.25 L485,122.25 C492,122.25 497.625,124.291667 501.875,128.375 C506.125,132.458333 508.25,137.5 508.25,143.5 C508.25,149.666667 506.041667,154.791667 501.625,158.875 C497.208333,162.958333 491.333333,165 484,165 L484,165 Z M487.75,240.25 L450.25,240.25 L450.25,194 L486.75,194 C495.416667,194 502.083333,196.166667 506.75,200.5 C511.416667,204.833333 513.75,210.416667 513.75,217.25 C513.75,224.083333 511.458333,229.625 506.875,233.875 C502.291667,238.125 495.916667,240.25 487.75,240.25 L487.75,240.25 Z M606.083333,275 C614.25,275 621.458333,273.416667 627.708333,270.25 C633.958333,267.083333 639,263 642.833333,258 L642.833333,258 L644.833333,258 L644.833333,271 L677.083333,271 L677.083333,192.5 C677.083333,175.166667 672,162 661.833333,153 C651.666667,144 636.833333,139.5 617.333333,139.5 C606.333333,139.5 596.166667,141.666667 586.833333,146 C577.5,150.333333 569.75,156.5 563.583333,164.5 L563.583333,164.5 L584.583333,181 C588.25,176.5 592.875,172.875 598.458333,170.125 C604.041667,167.375 609.833333,166 615.833333,166 C624.666667,166 631.708333,168.166667 636.958333,172.5 C642.208333,176.833333 644.833333,182.5 644.833333,189.5 L644.833333,189.5 L644.833333,195 C635.5,191.166667 624.25,189.25 611.083333,189.25 C601.583333,189.25 592.916667,191 585.083333,194.5 C577.25,198 571.083333,203 566.583333,209.5 C562.083333,216 559.833333,223.5 559.833333,232 C559.833333,244.833333 564.166667,255.208333 572.833333,263.125 C581.5,271.041667 592.583333,275 606.083333,275 Z M613.833333,249.5 C607,249.5 601.75,247.875 598.083333,244.625 C594.416667,241.375 592.583333,237.166667 592.583333,232 C592.583333,219.333333 601.083333,213 618.083333,213 C627.416667,213 636.333333,215 644.833333,219 C644.833333,227.166667 642.041667,234.291667 636.458333,240.375 C630.875,246.458333 623.333333,249.5 613.833333,249.5 Z M733.416667,271 L733.416667,206 C733.416667,195.666667 736.125,187.083333 741.541667,180.25 C746.958333,173.416667 754.083333,170 762.916667,170 C770.416667,170 776.25,172.25 780.416667,176.75 C784.583333,181.25 786.666667,187.583333 786.666667,195.75 L786.666667,195.75 L786.666667,271 L819.416667,271 L819.416667,191.75 C819.416667,175.583333 815.416667,162.833333 807.416667,153.5 C799.416667,144.166667 787.75,139.5 772.416667,139.5 C764.25,139.5 756.666667,141.291667 749.666667,144.875 C742.666667,148.458333 737.25,153.333333 733.416667,159.5 L733.416667,159.5 L731.416667,159.5 L731.416667,143.5 L700.666667,143.5 L700.666667,271 L733.416667,271 Z M876.5,271 L876.5,206 C876.5,195.666667 879.208333,187.083333 884.625,180.25 C890.041667,173.416667 897.166667,170 906,170 C913.5,170 919.333333,172.25 923.5,176.75 C927.666667,181.25 929.75,187.583333 929.75,195.75 L929.75,195.75 L929.75,271 L962.5,271 L962.5,191.75 C962.5,175.583333 958.5,162.833333 950.5,153.5 C942.5,144.166667 930.833333,139.5 915.5,139.5 C907.333333,139.5 899.75,141.291667 892.75,144.875 C885.75,148.458333 880.333333,153.333333 876.5,159.5 L876.5,159.5 L874.5,159.5 L874.5,143.5 L843.75,143.5 L843.75,271 L876.5,271 Z M1046.58333,275 C1073.08333,275 1092.83333,263.666667 1105.83333,241 L1105.83333,241 L1079.33333,228 C1076.16667,233.5 1071.875,237.875 1066.45833,241.125 C1061.04167,244.375 1054.58333,246 1047.08333,246 C1038.08333,246 1030.375,243.375 1023.95833,238.125 C1017.54167,232.875 1013.5,225.166667 1011.83333,215 L1011.83333,215 L1107.58333,215 C1108.08333,211.5 1108.33333,207.833333 1108.33333,204 C1108.33333,192 1105.875,181.083333 1100.95833,171.25 C1096.04167,161.416667 1088.83333,153.666667 1079.33333,148 C1069.83333,142.333333 1058.5,139.5 1045.33333,139.5 C1033,139.5 1021.83333,142.583333 1011.83333,148.75 C1001.83333,154.916667 994,163.208333 988.333333,173.625 C982.666667,184.041667 979.833333,195.333333 979.833333,207.5 C979.833333,220.333333 982.708333,231.875 988.458333,242.125 C994.208333,252.375 1002.16667,260.416667 1012.33333,266.25 C1022.5,272.083333 1033.91667,275 1046.58333,275 Z M1076.83333,191.75 L1013.33333,191.75 C1015.83333,183.916667 1019.875,177.708333 1025.45833,173.125 C1031.04167,168.541667 1037.75,166.25 1045.58333,166.25 C1051.75,166.25 1057.125,167.541667 1061.70833,170.125 C1066.29167,172.708333 1069.875,175.958333 1072.45833,179.875 C1075.04167,183.791667 1076.5,187.75 1076.83333,191.75 L1076.83333,191.75 Z M1159.66667,271 L1159.66667,207.5 C1159.66667,196.833333 1162.5,188 1168.16667,181 C1173.83333,174 1181.5,170.5 1191.16667,170.5 C1194.66667,170.5 1197.95833,170.875 1201.04167,171.625 C1204.125,172.375 1207.91667,173.583333 1212.41667,175.25 L1212.41667,175.25 L1212.41667,142.5 C1207.58333,140.666667 1202.25,139.75 1196.41667,139.75 C1188.41667,139.75 1181.08333,141.708333 1174.41667,145.625 C1167.75,149.541667 1162.83333,154.5 1159.66667,160.5 L1159.66667,160.5 L1157.66667,160.5 L1157.66667,143.5 L1126.91667,143.5 L1126.91667,271 L1159.66667,271 Z M1299.25,275 C1310.75,275 1321.20833,272.125 1330.625,266.375 C1340.04167,260.625 1347.41667,252.625 1352.75,242.375 C1358.08333,232.125 1360.75,220.416667 1360.75,207.25 C1360.75,194.25 1358.08333,182.583333 1352.75,172.25 C1347.41667,161.916667 1340.04167,153.875 1330.625,148.125 C1321.20833,142.375 1310.75,139.5 1299.25,139.5 C1290.58333,139.5 1282.91667,141.375 1276.25,145.125 C1269.58333,148.875 1264.5,153.5 1261,159 L1261,159 L1259,159 L1261,141 L1261,92 L1228.25,92 L1228.25,271 L1259,271 L1259,255.75 L1261,255.75 C1264.33333,261.25 1269.375,265.833333 1276.125,269.5 C1282.875,273.166667 1290.58333,275 1299.25,275 Z M1293.5,244.75 C1287.5,244.75 1281.83333,243.166667 1276.5,240 C1271.16667,236.833333 1266.91667,232.416667 1263.75,226.75 C1260.58333,221.083333 1259,214.583333 1259,207.25 C1259,199.916667 1260.58333,193.416667 1263.75,187.75 C1266.91667,182.083333 1271.16667,177.708333 1276.5,174.625 C1281.83333,171.541667 1287.5,170 1293.5,170 C1299.66667,170 1305.41667,171.541667 1310.75,174.625 C1316.08333,177.708333 1320.33333,182.083333 1323.5,187.75 C1326.66667,193.416667 1328.25,199.916667 1328.25,207.25 C1328.25,214.583333 1326.66667,221.083333 1323.5,226.75 C1320.33333,232.416667 1316.08333,236.833333 1310.75,240 C1305.41667,243.166667 1299.66667,244.75 1293.5,244.75 Z M1439.08333,275 C1465.58333,275 1485.33333,263.666667 1498.33333,241 L1498.33333,241 L1471.83333,228 C1468.66667,233.5 1464.375,237.875 1458.95833,241.125 C1453.54167,244.375 1447.08333,246 1439.58333,246 C1430.58333,246 1422.875,243.375 1416.45833,238.125 C1410.04167,232.875 1406,225.166667 1404.33333,215 L1404.33333,215 L1500.08333,215 C1500.58333,211.5 1500.83333,207.833333 1500.83333,204 C1500.83333,192 1498.375,181.083333 1493.45833,171.25 C1488.54167,161.416667 1481.33333,153.666667 1471.83333,148 C1462.33333,142.333333 1451,139.5 1437.83333,139.5 C1425.5,139.5 1414.33333,142.583333 1404.33333,148.75 C1394.33333,154.916667 1386.5,163.208333 1380.83333,173.625 C1375.16667,184.041667 1372.33333,195.333333 1372.33333,207.5 C1372.33333,220.333333 1375.20833,231.875 1380.95833,242.125 C1386.70833,252.375 1394.66667,260.416667 1404.83333,266.25 C1415,272.083333 1426.41667,275 1439.08333,275 Z M1469.33333,191.75 L1405.83333,191.75 C1408.33333,183.916667 1412.375,177.708333 1417.95833,173.125 C1423.54167,168.541667 1430.25,166.25 1438.08333,166.25 C1444.25,166.25 1449.625,167.541667 1454.20833,170.125 C1458.79167,172.708333 1462.375,175.958333 1464.95833,179.875 C1467.54167,183.791667 1469,187.75 1469.33333,191.75 L1469.33333,191.75 Z M1559.66667,275 C1567.83333,275 1575.04167,273.416667 1581.29167,270.25 C1587.54167,267.083333 1592.58333,263 1596.41667,258 L1596.41667,258 L1598.41667,258 L1598.41667,271 L1630.66667,271 L1630.66667,192.5 C1630.66667,175.166667 1625.58333,162 1615.41667,153 C1605.25,144 1590.41667,139.5 1570.91667,139.5 C1559.91667,139.5 1549.75,141.666667 1540.41667,146 C1531.08333,150.333333 1523.33333,156.5 1517.16667,164.5 L1517.16667,164.5 L1538.16667,181 C1541.83333,176.5 1546.45833,172.875 1552.04167,170.125 C1557.625,167.375 1563.41667,166 1569.41667,166 C1578.25,166 1585.29167,168.166667 1590.54167,172.5 C1595.79167,176.833333 1598.41667,182.5 1598.41667,189.5 L1598.41667,189.5 L1598.41667,195 C1589.08333,191.166667 1577.83333,189.25 1564.66667,189.25 C1555.16667,189.25 1546.5,191 1538.66667,194.5 C1530.83333,198 1524.66667,203 1520.16667,209.5 C1515.66667,216 1513.41667,223.5 1513.41667,232 C1513.41667,244.833333 1517.75,255.208333 1526.41667,263.125 C1535.08333,271.041667 1546.16667,275 1559.66667,275 Z M1567.41667,249.5 C1560.58333,249.5 1555.33333,247.875 1551.66667,244.625 C1548,241.375 1546.16667,237.166667 1546.16667,232 C1546.16667,219.333333 1554.66667,213 1571.66667,213 C1581,213 1589.91667,215 1598.41667,219 C1598.41667,227.166667 1595.625,234.291667 1590.04167,240.375 C1584.45833,246.458333 1576.91667,249.5 1567.41667,249.5 Z M1687,271 L1687,207.5 C1687,196.833333 1689.83333,188 1695.5,181 C1701.16667,174 1708.83333,170.5 1718.5,170.5 C1722,170.5 1725.29167,170.875 1728.375,171.625 C1731.45833,172.375 1735.25,173.583333 1739.75,175.25 L1739.75,175.25 L1739.75,142.5 C1734.91667,140.666667 1729.58333,139.75 1723.75,139.75 C1715.75,139.75 1708.41667,141.708333 1701.75,145.625 C1695.08333,149.541667 1690.16667,154.5 1687,160.5 L1687,160.5 L1685,160.5 L1685,143.5 L1654.25,143.5 L1654.25,271 L1687,271 Z" id="Bannerbear"></path>
                </g>
            </g>
        </g>
    </g>
</svg>