<?xml version="1.0" encoding="UTF-8"?>
<svg width="385px" height="80px" viewBox="0 0 385 80" version="1.1" xmlns="http://www.w3.org/2000/svg" xmlns:xlink="http://www.w3.org/1999/xlink">
    <title>SVG /logo_primary_color</title>
    <g id="logo_primary_color" stroke="none" stroke-width="1" fill="none" fill-rule="evenodd">
        <g id="logo" transform="translate(3.000000, 4.000000)">
            <g id="UI-Element-/logoMark" fill="#4B39EF">
                <path d="M60.6346953,0 C62.6766247,0 64.5668003,1.10495747 65.5243999,2.90117979 C66.4419034,4.6217036 66.4029644,6.6491771 65.4226664,8.33204562 L65.3892661,8.38864008 L56.797229,22.761686 C55.8255887,24.3869668 54.0715472,25.4013856 52.1967598,25.4230132 L52.1355835,25.4233661 L42.3240877,25.4232919 L46.4020854,34.7593498 L46.418343,34.7867208 L46.4434232,34.8308069 C47.4037834,36.5666058 47.3803832,38.6303532 46.3844195,40.3402976 L46.3508605,40.3971638 L37.7588233,54.7702097 C36.7871954,56.3954699 35.0331654,57.4099089 33.1584841,57.4315369 L33.0973113,57.4318897 L21.054868,57.431817 L12.397783,66.5626963 L12.381404,66.579656 C11.5667519,67.4077925 10.4660547,67.8697674 9.31845932,67.8697674 C9.03158195,67.8697674 8.74451893,67.8407504 8.46053445,67.78286 C7.06066209,67.4970732 5.89759198,66.5365076 5.33774109,65.2116882 L5.32194821,65.1738683 L0.766132712,54.7156269 L0.742167543,54.6755452 L0.717275762,54.632369 C0.713141116,54.6250284 0.708935979,54.6174795 0.704544128,54.6095186 C-0.255835778,52.873858 -0.232574459,50.8101289 0.763263179,49.1001108 L0.796817966,49.0432421 L9.1302082,35.1028968 L2.98975103,21.0451675 L3.10227269,20.987851 L3.10056982,20.9794009 C2.84075067,19.6863125 3.04990427,18.3378091 3.71716016,17.1567263 L3.75401019,17.0924709 L3.78807474,17.034726 L12.3801634,2.66159385 C13.3519158,1.03641408 15.106033,0.0219807406 16.9805888,0 L17.0417574,0 L60.6346953,0 Z M15.5195195,57.3225554 L6.39039039,57.3224387 L9.07169646,63.524976 L9.07828615,63.541449 C9.12273694,63.6525677 9.19463187,63.7133666 9.30163972,63.735366 C9.39709257,63.7550591 9.47431915,63.734786 9.54736128,63.6682235 L9.56012884,63.6557961 L15.5195195,57.3225554 Z M41.6168093,35.9984915 L14.0216465,35.9984915 C13.9911716,35.9984915 13.9606996,35.9995366 13.9302799,36.001614 L13.9219219,36.0022345 L21.4882965,53.309868 L33.0959434,53.309868 C33.5730765,53.309868 34.0327067,53.0544306 34.2940588,52.6441464 L34.3148115,52.6105427 L42.9192768,38.2286774 C43.1759887,37.7996737 43.2043728,37.3019201 43.0009734,36.8539946 C42.7664787,36.3374854 42.2221429,35.9984915 41.6168093,35.9984915 Z M11.1531091,39.5524827 L4.32399048,51.062932 C4.05225121,51.5210685 4.03650152,52.0575917 4.27984007,52.5297594 L4.30565139,52.577776 L4.31940409,52.6012923 L4.34696832,52.6463701 L4.40158314,52.7275886 L4.46255209,52.8069126 L4.5208832,52.8735444 L4.53100242,52.8843407 L4.57044656,52.9242981 L4.60472271,52.9569161 C4.8195403,53.1519149 5.08509195,53.2708858 5.37798252,53.3014535 L5.44377743,53.3070714 L5.48187708,53.3090633 L5.53015153,53.309868 L17.1171171,53.309868 L11.1531091,39.5524827 Z M9.35735736,25.4511628 L12.3566295,32.3298554 L12.4150565,32.309936 C12.933009,32.1366082 13.4745507,32.0426544 14.0220258,32.0340994 L14.1041893,32.0334574 L40.8528529,32.0333824 L37.9829278,25.4512803 L9.35735736,25.4511628 Z M60.5584793,4.01257071 L32.8648649,4.01257071 L40.433526,21.3239472 L52.0369685,21.3239472 C52.5149756,21.3239472 52.9750143,21.0683385 53.2365011,20.6578192 L53.257264,20.6241964 L61.8622959,6.24260836 C62.1188905,5.81371252 62.1472577,5.31633189 61.9440926,4.86879795 C61.7143559,4.36288769 61.1876053,4.02709021 60.5970798,4.01302997 L60.5584793,4.01257071 Z M28.6254238,4.01257071 L17.086134,4.01257071 C16.6115992,4.01257071 16.1539321,4.26755772 15.8935808,4.67743963 L15.8729072,4.71101076 L7.29048824,19.092876 C7.03426329,19.5221661 7.00594604,20.0206676 7.2091197,20.4691721 C7.43796819,20.9746084 7.96188286,21.3094687 8.54886522,21.3234892 L8.58723371,21.3239472 L36.1741742,21.3239472 L28.6254238,4.01257071 Z" id="logo_fill"></path>
            </g>
            <path d="M106.367895,21.5584645 L106.401145,12.7456243 L82.1925926,12.7456243 L82.1925926,52.803989 L91.3064004,52.803989 L91.3064004,38.0968465 L103.235023,38.0968465 L103.268273,29.2840063 L91.3064004,29.2840063 L91.3064004,21.5584645 L106.367895,21.5584645 Z M111.527662,52.803989 L120.071856,52.803989 L120.071856,11.0288372 L111.527662,11.0288372 L111.527662,52.803989 Z M144.736099,24.1908713 L144.736099,39.8136336 C144.736099,43.8766963 142.57157,45.7079358 139.438698,45.7079358 C136.704556,45.7079358 134.483065,44.048375 134.483065,40.5003484 L134.483065,24.1908713 L125.93887,24.1908713 L125.93887,41.7593256 C125.93887,49.4848673 130.837542,53.6051563 136.590633,53.6051563 C140.350079,53.6051563 143.198144,52.2317266 144.736099,50.1143559 L144.736099,52.803989 L153.280294,52.803989 L153.280294,24.1908713 L144.736099,24.1908713 Z M176.235697,32.4314492 L176.235697,24.1908713 L170.368683,24.1908713 L170.368683,16.1791984 L161.824489,18.754379 L161.824489,24.1908713 L157.267585,24.1908713 L157.267585,32.4314492 L161.824489,32.4314492 L161.824489,42.5604929 C161.824489,50.5721658 165.071283,53.9485137 176.235697,52.803989 L176.235697,45.021221 C172.476252,45.2501259 170.368683,45.021221 170.368683,42.5604929 L170.368683,32.4314492 L176.235697,32.4314492 Z M198.336681,32.4314492 L198.336681,24.1908713 L192.469667,24.1908713 L192.469667,16.1791984 L183.925473,18.754379 L183.925473,24.1908713 L179.368569,24.1908713 L179.368569,32.4314492 L183.925473,32.4314492 L183.925473,42.5604929 C183.925473,50.5721658 187.172267,53.9485137 198.336681,52.803989 L198.336681,45.021221 C194.577236,45.2501259 192.469667,45.021221 192.469667,42.5604929 L192.469667,32.4314492 L198.336681,32.4314492 Z M211.380819,41.9310043 L231.60208,41.9310043 C231.829925,40.8437058 231.943848,39.6991811 231.943848,38.4974302 C231.943848,29.8562686 225.792027,23.389704 217.475678,23.389704 C208.475793,23.389704 202.323972,29.9707211 202.323972,38.4974302 C202.323972,47.0241392 208.36187,53.6051563 218.102252,53.6051563 C223.513575,53.6051563 227.728712,51.602238 230.519815,47.710854 L223.684459,43.7622438 C222.545233,45.021221 220.551588,45.9368407 218.216175,45.9368407 C215.083303,45.9368407 212.463083,44.9067685 211.380819,41.9310043 Z M211.209935,35.5216659 C212.007393,32.6031279 214.171922,31.0007933 217.418716,31.0007933 C219.981975,31.0007933 222.545233,32.2025443 223.456614,35.5216659 L211.209935,35.5216659 Z M245.329753,29.2840063 L245.329753,24.1908713 L236.785558,24.1908713 L236.785558,52.803989 L245.329753,52.803989 L245.329753,39.8708598 C245.329753,34.2054625 250.342347,32.7748066 253.873948,33.347069 L253.873948,23.618609 C250.285386,23.618609 246.468979,25.4498485 245.329753,29.2840063 Z M282.321347,21.5584645 L282.354597,12.7456243 L258.146045,12.7456243 L258.146045,52.803989 L267.259853,52.803989 L267.259853,38.0968465 L279.188476,38.0968465 L279.221726,29.2840063 L267.259853,29.2840063 L267.259853,21.5584645 L282.321347,21.5584645 Z M287.481114,52.803989 L296.025309,52.803989 L296.025309,11.0288372 L287.481114,11.0288372 L287.481114,52.803989 Z M315.961764,53.6051563 C324.335075,53.6051563 331.056508,47.0241392 331.056508,38.4974302 C331.056508,29.9707211 324.335075,23.389704 315.961764,23.389704 C307.588453,23.389704 300.86702,29.9707211 300.86702,38.4974302 C300.86702,47.0241392 307.588453,53.6051563 315.961764,53.6051563 Z M315.961764,45.2501259 C312.259279,45.2501259 309.411214,42.5604929 309.411214,38.4974302 C309.411214,34.4343674 312.259279,31.7447344 315.961764,31.7447344 C319.664248,31.7447344 322.512313,34.4343674 322.512313,38.4974302 C322.512313,42.5604929 319.664248,45.2501259 315.961764,45.2501259 Z M367.226933,24.1908713 L363.125719,39.5275024 L358.682738,24.1908713 L350.708156,24.1908713 L346.265175,39.5275024 L342.163961,24.1908713 L333.050153,24.1908713 L342.163961,52.803989 L350.138543,52.803989 L354.695447,37.5245842 L359.252351,52.803989 L367.226933,52.803989 L376.340741,24.1908713 L367.226933,24.1908713 Z" id="FlutterFlow" fill="#FFFFFF"></path>
        </g>
    </g>
</svg>